<?xml version="1.0" encoding="UTF-8"?>
<!DOCTYPE svg PUBLIC "-//W3C//DTD SVG 1.1//EN" "http://www.w3.org/Graphics/SVG/1.1/DTD/svg11.dtd">
<!-- Creator: CorelDRAW -->
<svg xmlns="http://www.w3.org/2000/svg" xml:space="preserve" width="2048px" height="2048px" style="shape-rendering:geometricPrecision; text-rendering:geometricPrecision; image-rendering:optimizeQuality; fill-rule:evenodd; clip-rule:evenodd"
viewBox="0 0 2048 2048"
 xmlns:xlink="http://www.w3.org/1999/xlink">
 <defs>
  <style type="text/css">
   <![CDATA[
    .fil2 {fill:none}
    .fil1 {fill:#5D4037}
    .fil0 {fill:#FFD54F}
   ]]>
  </style>
 </defs>
 <g id="Layer_x0020_1">
  <metadata id="CorelCorpID_0Corel-Layer"/>
  <path class="fil0" d="M1024 255.999c424.155,0 768.001,343.845 768.001,768.001 0,424.155 -343.845,768.001 -768.001,768.001 -424.155,0 -768.001,-343.845 -768.001,-768.001 0,-424.155 343.845,-768.001 768.001,-768.001z"/>
  <g id="_395246088">
   <path id="_395246952" class="fil1" d="M1024 1248c66.6875,0 127.781,13.8756 172.642,36.3048 51.502,25.7504 83.3587,63.6851 83.3587,107.695 0,44.0091 -31.8567,81.9449 -83.3587,107.695 -44.8607,22.4292 -105.954,36.3048 -172.642,36.3048 -66.6875,0 -127.781,-13.8756 -172.642,-36.3048 -51.502,-25.7504 -83.3587,-63.6863 -83.3587,-107.695 0,-44.0103 31.8567,-81.9449 83.3587,-107.695 44.8607,-22.4292 105.954,-36.3048 172.642,-36.3048z"/>
   <g>
    <g>
     <path id="_395246784" class="fil1" d="M1290.49 767.402c38.6988,0 70.0701,31.3713 70.0701,70.0701 0,38.6965 -31.3713,70.0678 -70.0701,70.0678 -38.6977,0 -70.0678,-31.3713 -70.0678,-70.0678 0,-38.6988 31.3701,-70.0701 70.0678,-70.0701z"/>
     <path id="_395246544" class="fil1" d="M1255.71 659.079c117.63,-49.3926 173.102,1.77756 186.879,99.8209 -50.9327,-54.8552 -113.406,-87.7867 -186.879,-99.8209z"/>
    </g>
    <g>
     <path id="_395246400" class="fil1" d="M757.514 767.402c-38.6988,0 -70.0701,31.3713 -70.0701,70.0701 0,38.6965 31.3713,70.0678 70.0701,70.0678 38.6977,0 70.0678,-31.3713 70.0678,-70.0678 0,-38.6988 -31.3701,-70.0701 -70.0678,-70.0701z"/>
     <path id="_395246280" class="fil1" d="M792.286 659.079c-117.63,-49.3926 -173.102,1.77756 -186.879,99.8209 50.9327,-54.8552 113.406,-87.7867 186.879,-99.8209z"/>
    </g>
   </g>
  </g>
  <rect class="fil2" width="2048" height="2048"/>
  <rect class="fil2" x="255.999" y="255.999" width="1536" height="1536"/>
  <rect class="fil2" width="2048" height="2048"/>
  <rect class="fil2" x="255.999" y="255.999" width="1536" height="1536"/>
  <rect class="fil2" width="2048" height="2048"/>
  <rect class="fil2" x="255.999" y="255.999" width="1536" height="1536"/>
  <rect class="fil2" width="2048" height="2048"/>
  <rect class="fil2" x="255.999" y="255.999" width="1536" height="1536"/>
 </g>
</svg>
