<?xml version="1.0" encoding="UTF-8"?>
<!DOCTYPE svg PUBLIC "-//W3C//DTD SVG 1.1//EN" "http://www.w3.org/Graphics/SVG/1.1/DTD/svg11.dtd">
<!-- Creator: CorelDRAW -->
<svg xmlns="http://www.w3.org/2000/svg" xml:space="preserve" width="2048px" height="2048px" style="shape-rendering:geometricPrecision; text-rendering:geometricPrecision; image-rendering:optimizeQuality; fill-rule:evenodd; clip-rule:evenodd"
viewBox="0 0 2048 2048"
 xmlns:xlink="http://www.w3.org/1999/xlink">
 <defs>
  <style type="text/css">
   <![CDATA[
    .fil1 {fill:none}
    .fil2 {fill:#5D4037}
    .fil0 {fill:#FFD54F}
   ]]>
  </style>
 </defs>
 <g id="Layer_x0020_1">
  <metadata id="CorelCorpID_0Corel-Layer"/>
  <path class="fil0" d="M1024 255.999c424.155,0 768.001,343.845 768.001,768.001 0,424.155 -343.845,768.001 -768.001,768.001 -424.155,0 -768.001,-343.845 -768.001,-768.001 0,-424.155 343.845,-768.001 768.001,-768.001z"/>
  <g id="_394849200">
   <rect id="_394849368" class="fil1" width="2048" height="2048"/>
   <rect id="_394849176" class="fil1" x="255.999" y="255.999" width="1536" height="1536"/>
  </g>
  <g id="_394848360">
   <path id="_394849032" class="fil2" d="M671.773 1439.35c54.404,-312.78 657.185,-300.019 704.001,0 -114.196,-155.313 -489.486,-229.459 -704.001,0z"/>
   <g>
    <path id="_394848864" class="fil2" d="M753.086 610.424c-44.9138,-6.62481 -66.7867,5.45433 -68.1579,34.1729 43.0347,64.6441 392.935,168.868 68.1579,-34.1729z"/>
    <circle id="_394848768" class="fil2" cx="779.072" cy="834.09" r="55.4345"/>
    <g>
     <path id="_394848576" class="fil2" d="M1308.07 610.424c44.9138,-6.62481 66.7867,5.45433 68.1579,34.1729 -43.0347,64.6441 -392.935,168.868 -68.1579,-34.1729z"/>
     <circle id="_394848552" class="fil2" cx="1282.08" cy="834.09" r="55.4345"/>
    </g>
   </g>
  </g>
 </g>
</svg>
