<svg width="328" height="185" viewBox="0 0 328 185" fill="none" xmlns="http://www.w3.org/2000/svg">
<g clip-path="url(#clip0_30301_258606)">
<path d="M241.742 105.912L90.5546 132.516C87.65 133.027 85.7094 135.794 86.22 138.696C86.7306 141.598 89.4992 143.536 92.4038 143.025L243.591 116.421C246.495 115.909 248.436 113.143 247.926 110.241C247.415 107.339 244.646 105.401 241.742 105.912Z" fill="#A76BB5"/>
<path d="M135.37 73.8084C135.37 74.2684 135.34 111.648 135.34 111.648H135.31C135.31 117.088 130.9 121.508 125.45 121.508C121.44 121.508 117.99 119.118 116.45 115.678C114.94 118.868 111.69 121.068 107.93 121.068C104.17 121.068 100.93 118.868 99.41 115.678C97.87 119.108 94.43 121.508 90.41 121.508C84.97 121.498 80.55 117.088 80.55 111.648H80.53C80.53 111.648 80.5 74.2684 80.5 73.8084C80.5 57.2584 92.91 45.3984 107.93 45.3984C122.95 45.3984 135.36 57.2584 135.36 73.8084H135.37Z" fill="#E0BEF6"/>
<path d="M135.34 100.961H135.31C135.31 106.401 130.9 110.821 125.45 110.821C122.93 110.821 120.62 109.871 118.88 108.311C117.47 107.051 115.39 107.021 113.94 108.221C112.31 109.571 110.21 110.381 107.93 110.381C105.65 110.381 103.56 109.571 101.93 108.221C100.48 107.021 98.4 107.051 96.99 108.311C95.25 109.871 92.95 110.821 90.42 110.821C84.97 110.821 80.55 106.411 80.55 100.961L80.53 105.081V111.651H80.55C80.55 117.091 84.97 121.511 90.41 121.511C94.42 121.511 97.87 119.121 99.41 115.681C100.92 118.871 104.17 121.071 107.93 121.071C111.69 121.071 114.94 118.871 116.45 115.681C117.99 119.111 121.44 121.511 125.45 121.511C130.9 121.511 135.31 117.091 135.31 111.651L135.34 100.971V100.961Z" fill="#D1ACE5"/>
<path d="M121.49 78.3708C125.306 78.3708 128.4 75.2771 128.4 71.4608C128.4 67.6445 125.306 64.5508 121.49 64.5508C117.674 64.5508 114.58 67.6445 114.58 71.4608C114.58 75.2771 117.674 78.3708 121.49 78.3708Z" fill="white"/>
<path d="M123.38 75.8298C125.793 75.8298 127.75 73.8733 127.75 71.4598C127.75 69.0464 125.793 67.0898 123.38 67.0898C120.967 67.0898 119.01 69.0464 119.01 71.4598C119.01 73.8733 120.967 75.8298 123.38 75.8298Z" fill="#491249"/>
<path d="M101.99 78.3708C105.806 78.3708 108.9 75.2771 108.9 71.4608C108.9 67.6445 105.806 64.5508 101.99 64.5508C98.1738 64.5508 95.0801 67.6445 95.0801 71.4608C95.0801 75.2771 98.1738 78.3708 101.99 78.3708Z" fill="white"/>
<path d="M103.88 75.8298C106.293 75.8298 108.25 73.8733 108.25 71.4598C108.25 69.0464 106.293 67.0898 103.88 67.0898C101.467 67.0898 99.51 69.0464 99.51 71.4598C99.51 73.8733 101.467 75.8298 103.88 75.8298Z" fill="#491249"/>
<path d="M244.15 54.91C244.15 55.37 244.12 92.75 244.12 92.75H244.09C244.09 98.19 239.68 102.61 234.23 102.61C230.22 102.61 226.77 100.22 225.23 96.78C223.72 99.97 220.47 102.17 216.71 102.17C212.95 102.17 209.71 99.97 208.19 96.78C206.65 100.21 203.21 102.61 199.19 102.61C193.75 102.61 189.33 98.19 189.33 92.75H189.31C189.31 92.75 189.28 55.37 189.28 54.91C189.28 38.36 201.69 26.5 216.71 26.5C231.73 26.5 244.14 38.36 244.14 54.91H244.15Z" fill="#C5BDF3"/>
<path d="M244.12 82.0703H244.09C244.09 87.5103 239.68 91.9303 234.23 91.9303C231.71 91.9303 229.4 90.9803 227.66 89.4203C226.25 88.1603 224.17 88.1303 222.72 89.3303C221.09 90.6803 218.99 91.4903 216.71 91.4903C214.43 91.4903 212.34 90.6803 210.71 89.3303C209.26 88.1303 207.18 88.1603 205.77 89.4203C204.03 90.9803 201.73 91.9303 199.2 91.9303C193.76 91.9303 189.34 87.5103 189.34 82.0703L189.32 86.1903V92.7603H189.34C189.34 98.2003 193.76 102.62 199.2 102.62C203.21 102.62 206.66 100.23 208.2 96.7903C209.71 99.9803 212.96 102.18 216.72 102.18C220.48 102.18 223.73 99.9803 225.24 96.7903C226.78 100.22 230.23 102.62 234.24 102.62C239.69 102.62 244.1 98.2003 244.1 92.7603L244.13 82.0803L244.12 82.0703Z" fill="#AEA9E4"/>
<path d="M223.62 60.5817C227.436 60.5817 230.53 57.488 230.53 53.6717C230.53 49.8554 227.436 46.7617 223.62 46.7617C219.804 46.7617 216.71 49.8554 216.71 53.6717C216.71 57.488 219.804 60.5817 223.62 60.5817Z" fill="white"/>
<path d="M221.91 58.0408C224.324 58.0408 226.28 56.0843 226.28 53.6708C226.28 51.2573 224.324 49.3008 221.91 49.3008C219.497 49.3008 217.54 51.2573 217.54 53.6708C217.54 56.0843 219.497 58.0408 221.91 58.0408Z" fill="#491249"/>
<path d="M203.85 60.5817C207.666 60.5817 210.76 57.488 210.76 53.6717C210.76 49.8554 207.666 46.7617 203.85 46.7617C200.034 46.7617 196.94 49.8554 196.94 53.6717C196.94 57.488 200.034 60.5817 203.85 60.5817Z" fill="white"/>
<path d="M202.15 58.0408C204.564 58.0408 206.52 56.0843 206.52 53.6708C206.52 51.2573 204.564 49.3008 202.15 49.3008C199.737 49.3008 197.78 51.2573 197.78 53.6708C197.78 56.0843 199.737 58.0408 202.15 58.0408Z" fill="#491249"/>
<path d="M166.47 129.031C150.72 129.031 137.95 141.801 137.95 157.551H194.98C194.98 141.801 182.21 129.031 166.46 129.031H166.47Z" fill="#A76BB5"/>
</g>
<defs>
<clipPath id="clip0_30301_258606">
<rect width="167.51" height="131.05" fill="white" transform="translate(80.5 26.5)"/>
</clipPath>
</defs>
</svg>
