<svg width="144" height="144" viewBox="0 0 144 144" fill="none" xmlns="http://www.w3.org/2000/svg">
<g clip-path="url(#clip0_4028_19154)">
<path d="M72.6361 144C112.36 144 144.563 111.798 144.563 72.0736C144.563 32.3496 112.36 0.146973 72.6361 0.146973C32.9121 0.146973 0.709473 32.3496 0.709473 72.0736C0.709473 111.798 32.9121 144 72.6361 144Z" fill="#EEEAFD"/>
<path opacity="0.7" d="M90.464 57.5074C92.2456 58.0734 93.873 59.2173 95.021 60.9327L95.0284 60.9438C97.4261 64.5404 98.9774 68.7501 99.41 73.2784C99.4968 74.1483 99.5318 74.9828 99.5432 75.7378L99.5441 75.7962V75.8546V75.9522V75.9729L99.544 75.9937C99.4723 89.2946 89.7598 100.302 77.0319 102.396C77.0301 102.397 77.0284 102.397 77.0267 102.397C76.8702 102.423 76.7345 102.441 76.6298 102.452L76.5775 102.46L76.375 102.478C74.984 102.602 73.5083 102.667 71.9278 102.667C70.5057 102.667 69.1455 102.537 67.8469 102.318C66.8246 102.152 65.8186 101.864 65.2484 101.701C65.1505 101.673 65.0655 101.649 64.9954 101.63L64.9849 101.627C64.2756 101.429 63.6071 101.203 62.9788 100.963C62.9076 100.936 62.8497 100.912 62.8129 100.898L62.7822 100.885C62.7293 100.864 62.678 100.843 62.6284 100.823C57.5716 98.7969 53.2945 95.2877 50.3105 90.8468L50.2952 90.825C49.2259 89.2993 48.2909 87.6607 47.5254 85.9391C46.11 82.7637 45.7054 79.3777 45.7496 76.3654C45.7428 76.1387 45.7431 75.9573 45.7433 75.878C45.7433 75.8688 45.7433 75.8609 45.7433 75.8546C45.7433 73.1235 46.1566 70.4846 46.9091 68.0088C48.2244 62.8852 50.6787 58.7375 52.166 56.4593L52.1662 56.4591C53.4316 54.521 54.7325 53.0698 56.1992 51.8721L56.2085 51.8645L56.2085 51.8645C57.8397 50.5368 60.0607 49.6974 62.4536 49.8718L62.4537 49.8683L62.454 49.8579C62.627 44.2799 67.8371 40.5326 72.9987 41.6888L73.0098 41.6913L73.0208 41.6938C77.1138 42.6233 80.5197 44.9786 83.0907 47.4117C85.7175 49.8974 87.9192 52.8821 89.579 55.836L90.464 57.5074ZM90.464 57.5074C90.1842 56.9441 89.8889 56.3866 89.5799 55.8377L90.464 57.5074ZM92.6667 63.2336C92.6659 63.2308 92.6652 63.2279 92.6644 63.225C92.6652 63.2279 92.6659 63.2308 92.6667 63.2336ZM47.591 66.3732C47.5779 66.3969 47.5632 66.4236 47.5474 66.4527C47.5635 66.423 47.5782 66.3963 47.591 66.3732ZM50.0941 90.5193L50.1005 90.5295C50.0973 90.5244 50.0944 90.5197 50.0923 90.5164L50.0941 90.5193ZM62.7281 100.863C62.7253 100.862 62.7236 100.861 62.7297 100.864L62.7281 100.863ZM76.3503 102.479C76.3544 102.479 76.3632 102.478 76.3749 102.477C76.3697 102.478 76.3653 102.478 76.3616 102.478C76.3531 102.479 76.3439 102.48 76.3439 102.48L76.3487 102.479L76.3503 102.479Z" fill="white" stroke="white" stroke-width="15.4128"/>
<path d="M91.66 73.797C91.3532 70.5569 90.2468 67.5539 88.5362 64.9879C88.1224 64.3696 87.1927 64.4394 86.8952 65.1227C86.5419 65.9315 85.3658 65.8479 85.1427 64.9972C84.6732 63.2447 83.8597 61.2969 82.7812 59.3817C80.099 54.6076 75.799 50.0148 71.2341 48.9782C70.6531 48.848 70.0952 49.2664 70.0766 49.866C69.9883 52.9852 69.556 55.2119 68.8122 56.7971C67.9429 58.6565 66.646 59.6281 64.9725 60.1022C64.8377 60.1394 64.6889 60.1487 64.5495 60.1208C63.815 59.9674 63.313 59.5723 62.9829 58.9912C62.8202 58.7076 62.6993 58.3822 62.6157 58.0197C62.439 57.2666 61.593 57.1225 60.9933 57.6106C60.2077 58.2521 59.4221 59.0888 58.5389 60.4416C57.2187 62.4637 55.2384 65.8711 54.2436 69.8921C54.2389 69.9014 54.2343 69.9061 54.2343 69.9154C53.6764 71.7144 53.3696 73.6343 53.3696 75.6238C53.3696 75.7633 53.3696 75.9074 53.3789 76.0469C53.3231 78.413 53.6392 80.6769 54.4853 82.5735C55.0431 83.8286 55.7311 85.0372 56.526 86.1715C56.54 86.1854 56.5493 86.2087 56.5632 86.2226C58.7155 89.4673 61.8254 92.0194 65.4931 93.4698C65.5071 93.4744 65.5117 93.4791 65.5257 93.4837C65.5629 93.4977 65.6047 93.5162 65.6419 93.5302C66.0789 93.6975 66.5205 93.8463 66.9714 93.9718C67.7942 94.1996 68.3706 94.3809 69.0214 94.4831C69.9465 94.6412 70.8855 94.7295 71.8478 94.7295C73.2191 94.7295 74.4649 94.6737 75.6085 94.5715C75.641 94.5668 75.6689 94.5668 75.6968 94.5622C84.7755 93.07 91.7065 85.2092 91.7576 75.7215V75.6238C91.7483 75.0102 91.7204 74.3966 91.66 73.797Z" fill="#FF5440"/>
</g>
<defs>
<clipPath id="clip0_4028_19154">
<rect width="143.853" height="143.853" fill="white" transform="translate(0.146973 0.146973)"/>
</clipPath>
</defs>
</svg>
