<svg width="144" height="144" viewBox="0 0 144 144" fill="none" xmlns="http://www.w3.org/2000/svg">
<g clip-path="url(#clip0_4028_19079)">
<path d="M72.5692 143.853C112.293 143.853 144.496 111.651 144.496 71.9266C144.496 32.2026 112.293 0 72.5692 0C32.8452 0 0.642578 32.2026 0.642578 71.9266C0.642578 111.651 32.8452 143.853 72.5692 143.853Z" fill="#EEEAFD"/>
<path opacity="0.7" d="M72.3243 45.6661L68.4384 43.1125C59.8947 37.4441 49.4013 44.2964 49.8503 53.7266L50.0749 58.4422L45.8003 60.5795L45.7285 60.6153L45.6575 60.6527C37.0134 65.2022 37.0134 77.3795 45.6575 81.929L45.7285 81.9664L45.8003 82.0023L50.0749 84.1396L49.8503 88.8551C49.4013 98.2854 59.8947 105.138 68.4383 99.4694L72.3243 96.9157L76.2108 99.4696C84.7544 105.137 95.2474 98.2852 94.7984 88.8551L94.5738 84.1396L98.7902 82.0314C108.026 77.574 107.31 65.0308 98.9912 60.6527L98.9202 60.6153L98.8484 60.5795L94.5738 58.4422L94.7984 53.7266C95.2474 44.2964 84.754 37.4441 76.2103 43.1124L72.3243 45.6661Z" fill="white" stroke="white" stroke-width="15.4128"/>
<path d="M95.4019 75.1095L89.093 78.264C87.5987 79.0941 86.6026 80.5883 86.7686 82.2486L87.1007 89.2217C87.2667 92.7082 83.4481 95.0326 80.4596 93.0403L74.6487 89.2217C73.1545 88.2255 71.3282 88.2255 70 89.2217L64.1891 93.0403C61.2006 95.0326 57.382 92.7082 57.548 89.2217L57.8801 82.2486C58.0461 80.5883 57.05 78.9281 55.5557 78.264L49.2467 75.1095C46.0922 73.4492 46.0922 69.1325 49.2467 67.4723L55.5557 64.3178C57.05 63.4877 58.0461 61.9934 57.8801 60.3332L57.548 53.3601C57.382 49.8735 61.2006 47.5492 64.1891 49.5415L70 53.3601C71.4942 54.3562 73.3205 54.3562 74.6487 53.3601L80.4596 49.5415C83.4481 47.5492 87.2667 49.8735 87.1007 53.3601L86.7686 60.3332C86.6026 61.9934 87.5987 63.6537 89.093 64.3178L95.4019 67.4723C98.5564 69.1325 98.5564 73.6152 95.4019 75.1095Z" fill="#FA6654"/>
</g>
<defs>
<clipPath id="clip0_4028_19079">
<rect width="143.853" height="143.853" fill="white"/>
</clipPath>
</defs>
</svg>
