<svg width="280" height="400" viewBox="0 0 280 400" fill="none" xmlns="http://www.w3.org/2000/svg">
<g clip-path="url(#clip0_3425_15601)">
<rect width="280" height="400" rx="20" fill="#CDF1FF"/>
<g clip-path="url(#clip1_3425_15601)">
<path d="M219.254 309.316C219.251 292.225 213.773 275.585 203.621 261.835C193.47 248.086 179.18 237.95 162.848 232.915C160.472 232.152 158.401 230.651 156.935 228.63C155.47 226.61 154.686 224.175 154.699 221.679V211.511C154.705 209.271 155.461 207.098 156.846 205.338C158.232 203.579 160.167 202.334 162.343 201.803C182.936 196.653 201.216 184.767 214.279 168.036C227.342 151.305 234.438 130.687 234.439 109.46H44.1575C44.1577 130.261 50.9698 150.489 63.5524 167.052C76.1349 183.615 93.7954 195.602 113.834 201.18C115.955 201.746 117.831 202.995 119.172 204.733C120.513 206.472 121.246 208.603 121.256 210.798V222.555C121.247 225.039 120.458 227.459 119.002 229.472C117.545 231.485 115.494 232.991 113.136 233.776C97.3667 239.249 83.7057 249.521 74.0691 263.15C64.4325 276.78 59.3037 293.084 59.402 309.776V323.967H219.269V309.776C219.239 309.628 219.254 309.479 219.254 309.316Z" fill="white"/>
<path d="M80.7764 154.077C79.7265 154.078 78.6991 154.382 77.8167 154.95C76.9343 155.519 76.234 156.33 75.7992 157.286C75.3644 158.241 75.2134 159.302 75.3642 160.341C75.515 161.38 75.9613 162.354 76.6498 163.146C88.8686 177.385 105.663 186.926 124.15 190.132L125.634 190.384C127.042 190.609 128.322 191.332 129.24 192.422C130.159 193.512 130.654 194.896 130.637 196.322V220.072C130.606 222.159 131.346 224.183 132.715 225.758C134.085 227.333 135.987 228.348 138.058 228.607C139.201 228.716 140.353 228.586 141.443 228.224C142.532 227.863 143.533 227.277 144.383 226.506C145.232 225.734 145.912 224.794 146.377 223.745C146.842 222.696 147.082 221.561 147.083 220.413V196.441C147.087 194.993 147.613 193.595 148.565 192.505C149.517 191.414 150.83 190.703 152.264 190.503C171.627 187.671 189.311 177.927 202.05 163.072C202.701 162.27 203.111 161.3 203.234 160.275C203.356 159.249 203.185 158.21 202.74 157.278C202.296 156.345 201.596 155.558 200.723 155.007C199.849 154.457 198.837 154.165 197.804 154.166L80.7764 154.077Z" fill="#4AC0DC"/>
<path d="M209.695 314.744C209.695 315.011 209.695 320.682 209.695 329.083H68.9314V314.744C68.9314 272.276 100.786 241.847 139.306 241.847C177.825 241.847 209.695 272.276 209.695 314.744Z" fill="#E1BFF7"/>
<path fill-rule="evenodd" clip-rule="evenodd" d="M130.143 279.164C131.867 280.146 132.469 282.339 131.488 284.063C130.26 286.219 128.564 288.072 126.524 289.484C124.484 290.896 122.153 291.831 119.703 292.221C117.253 292.61 114.747 292.444 112.37 291.734C109.992 291.024 107.805 289.789 105.97 288.12C104.502 286.786 104.394 284.514 105.729 283.046C107.063 281.578 109.335 281.47 110.803 282.805C111.842 283.75 113.08 284.448 114.425 284.85C115.77 285.252 117.189 285.346 118.575 285.125C119.962 284.905 121.281 284.376 122.435 283.577C123.59 282.777 124.55 281.729 125.244 280.509C126.226 278.785 128.419 278.183 130.143 279.164Z" fill="#29181B"/>
<path fill-rule="evenodd" clip-rule="evenodd" d="M169.031 273.203C170.76 274.175 171.375 276.364 170.403 278.094C169.188 280.256 167.503 282.118 165.472 283.542C163.442 284.967 161.117 285.916 158.67 286.322C156.224 286.728 153.717 286.579 151.335 285.886C148.954 285.194 146.758 283.975 144.91 282.321C143.432 280.997 143.307 278.726 144.63 277.248C145.954 275.77 148.225 275.645 149.703 276.969C150.749 277.906 151.993 278.596 153.341 278.988C154.69 279.38 156.11 279.464 157.495 279.235C158.881 279.005 160.197 278.467 161.347 277.66C162.497 276.854 163.452 275.799 164.14 274.575C165.111 272.845 167.301 272.231 169.031 273.203Z" fill="#29181B"/>
<path d="M139.558 302.592C140.378 302.592 141.042 300.931 141.042 298.881C141.042 296.832 140.378 295.17 139.558 295.17C138.738 295.17 138.073 296.832 138.073 298.881C138.073 300.931 138.738 302.592 139.558 302.592Z" fill="#666666"/>
<path fill-rule="evenodd" clip-rule="evenodd" d="M141.853 297.568C141.853 297.568 141.851 297.573 141.846 297.583C141.851 297.572 141.853 297.568 141.853 297.568ZM137.263 297.568C137.263 297.568 137.265 297.572 137.27 297.583C137.265 297.573 137.263 297.568 137.263 297.568ZM137.263 300.192C137.263 300.192 137.265 300.186 137.27 300.176C137.265 300.187 137.263 300.192 137.263 300.192ZM141.846 300.176C141.851 300.186 141.853 300.192 141.853 300.192C141.853 300.192 141.851 300.187 141.846 300.176ZM136.37 292.992C136.971 292.357 138.047 291.577 139.558 291.577C141.069 291.577 142.145 292.357 142.746 292.992C143.339 293.62 143.708 294.335 143.943 294.922C144.42 296.114 144.635 297.515 144.635 298.88C144.635 300.244 144.42 301.645 143.943 302.838C143.708 303.424 143.339 304.14 142.746 304.767C142.145 305.402 141.069 306.183 139.558 306.183C138.047 306.183 136.971 305.402 136.37 304.767C135.777 304.14 135.408 303.424 135.173 302.838C134.696 301.645 134.481 300.244 134.481 298.88C134.481 297.515 134.696 296.114 135.173 294.922C135.408 294.335 135.777 293.62 136.37 292.992Z" fill="#29181B"/>
</g>
<path d="M239.531 223.075C235.39 226.919 220.858 232.337 209.339 236.226C207.979 236.696 206.511 236.759 205.115 236.409C203.719 236.059 202.455 235.311 201.476 234.256C200.498 233.2 199.848 231.883 199.604 230.464C199.361 229.046 199.536 227.587 200.106 226.266C204.841 215.074 211.343 201.032 215.47 197.143C218.931 194.094 223.447 192.517 228.055 192.749C232.662 192.981 236.997 195.004 240.135 198.385C243.273 201.767 244.966 206.241 244.853 210.853C244.74 215.465 242.831 219.85 239.531 223.075Z" fill="white"/>
<path d="M55.9756 232.973C58.6475 232.127 65.8467 232.661 72.1107 233.359C73.068 233.462 73.9743 233.843 74.7182 234.454C75.4621 235.066 76.0112 235.881 76.2982 236.8C76.5851 237.719 76.5973 238.702 76.3334 239.628C76.0694 240.554 75.5407 241.383 74.8122 242.013C70.0623 246.169 64.4217 250.696 61.7795 251.542C60.5602 251.924 59.2778 252.061 58.0055 251.946C56.7332 251.832 55.4959 251.468 54.3643 250.875C52.0788 249.678 50.3625 247.622 49.5929 245.16C48.8232 242.697 49.0633 240.03 50.2603 237.744C51.4573 235.459 53.5132 233.743 55.9756 232.973Z" fill="white"/>
<path d="M55.084 190.285C58.0527 192.838 63.0253 202.398 66.7065 210.146C67.1585 211.093 67.3268 212.15 67.1912 213.19C67.0555 214.23 66.6217 215.208 65.9421 216.007C65.2624 216.806 64.3661 217.391 63.3612 217.692C62.3564 217.993 61.286 217.996 60.2792 217.702C52.041 215.312 41.8137 211.972 38.8153 209.404C36.28 207.239 34.7087 204.155 34.447 200.831C34.1853 197.507 35.2547 194.216 37.42 191.681C39.5852 189.145 42.6689 187.574 45.9927 187.312C49.3164 187.051 52.608 188.12 55.1433 190.285H55.084Z" fill="white"/>
<path d="M224.212 92.7271H51.7425C42.4952 92.7271 34.9988 100.223 34.9988 109.471C34.9988 118.718 42.4952 126.214 51.7425 126.214H224.212C233.459 126.214 240.956 118.718 240.956 109.471C240.956 100.223 233.459 92.7271 224.212 92.7271Z" fill="#80DAFF"/>
<path d="M134.452 92.7271H92.0582C82.8109 92.7271 75.3145 100.223 75.3145 109.471C75.3145 118.718 82.8109 126.214 92.0582 126.214H134.452C143.699 126.214 151.196 118.718 151.196 109.471C151.196 100.223 143.699 92.7271 134.452 92.7271Z" fill="#A5E9FF"/>
<path d="M224.524 92.7271H209.502C200.254 92.7271 192.758 100.223 192.758 109.471C192.758 118.718 200.254 126.214 209.502 126.214H224.524C233.771 126.214 241.267 118.718 241.267 109.471C241.267 100.223 233.771 92.7271 224.524 92.7271Z" fill="#4AC0DC"/>
</g>
<defs>
<clipPath id="clip0_3425_15601">
<rect width="280" height="400" rx="20" fill="white"/>
</clipPath>
<clipPath id="clip1_3425_15601">
<rect x="19.4993" y="80" width="240.001" height="240" rx="120" fill="white"/>
</clipPath>
</defs>
</svg>
