<svg width="144" height="145" viewBox="0 0 144 145" fill="none" xmlns="http://www.w3.org/2000/svg">
<g clip-path="url(#clip0_4028_19137)">
<path d="M72.0736 144.541C111.798 144.541 144 112.339 144 72.6146C144 32.8906 111.798 0.687988 72.0736 0.687988C32.3496 0.687988 0.146973 32.8906 0.146973 72.6146C0.146973 112.339 32.3496 144.541 72.0736 144.541Z" fill="#EEEAFD"/>
<g opacity="0.7">
<mask id="path-2-outside-1_4028_19137" maskUnits="userSpaceOnUse" x="22.0687" y="16.5249" width="103.486" height="113.846" fill="black">
<rect fill="white" x="22.0687" y="16.5249" width="103.486" height="113.846"/>
<path fill-rule="evenodd" clip-rule="evenodd" d="M83.5879 90.2525C88.8684 88.3299 93.3698 84.2767 95.8269 78.5609C100.71 67.2023 95.6701 53.5794 84.5706 48.1333C73.4711 42.6872 60.5148 47.4802 55.632 58.8388C53.6939 63.3472 53.3191 68.2124 54.2659 72.7814L56.0399 89.9243C56.8089 97.3554 64.7528 101.666 70.8597 97.9651L83.5879 90.2525Z"/>
</mask>
<path fill-rule="evenodd" clip-rule="evenodd" d="M83.5879 90.2525C88.8684 88.3299 93.3698 84.2767 95.8269 78.5609C100.71 67.2023 95.6701 53.5794 84.5706 48.1333C73.4711 42.6872 60.5148 47.4802 55.632 58.8388C53.6939 63.3472 53.3191 68.2124 54.2659 72.7814L56.0399 89.9243C56.8089 97.3554 64.7528 101.666 70.8597 97.9651L83.5879 90.2525Z" fill="white"/>
<path d="M83.5879 90.2525L78.177 75.4138L76.8587 75.8937L75.6569 76.622L83.5879 90.2525ZM54.2659 72.7814L69.2955 71.6087L69.2095 70.7781L69.0397 69.9587L54.2659 72.7814ZM56.0399 89.9243L41.0104 91.0971L41.0104 91.0971L56.0399 89.9243ZM70.8597 97.9651L62.9287 84.3346L62.9287 84.3346L70.8597 97.9651ZM81.9899 71.7716C81.2231 73.5556 79.8445 74.8066 78.177 75.4138L88.9988 105.091C97.8922 101.853 105.517 94.9978 109.664 85.3502L81.9899 71.7716ZM78.4835 62.2932C81.9411 63.9897 83.511 68.2334 81.9899 71.7716L109.664 85.3502C117.908 66.1713 109.399 43.1691 90.6576 33.9734L78.4835 62.2932ZM69.469 65.628C70.99 62.0898 75.026 60.5967 78.4835 62.2932L90.6576 33.9734C71.9162 24.7776 50.0397 32.8706 41.7951 52.0495L69.469 65.628ZM69.0397 69.9587C68.7457 68.54 68.8577 67.05 69.469 65.628L41.7951 52.0495C38.5301 59.6445 37.8924 67.8848 39.4921 75.6041L69.0397 69.9587ZM71.0695 88.7516L69.2955 71.6087L39.2364 73.9541L41.0104 91.0971L71.0695 88.7516ZM62.9287 84.3346C66.2833 82.3019 70.6471 84.6695 71.0695 88.7516L41.0104 91.0971C42.9708 110.041 63.2224 121.029 78.7907 111.596L62.9287 84.3346ZM75.6569 76.622L62.9287 84.3346L78.7907 111.596L91.5189 103.883L75.6569 76.622Z" fill="white" mask="url(#path-2-outside-1_4028_19137)"/>
</g>
<path fill-rule="evenodd" clip-rule="evenodd" d="M87.6193 88.1791C91.0584 85.9616 93.9065 82.6963 95.6843 78.5607C100.567 67.2021 95.5275 53.5792 84.428 48.1331C73.3285 42.6869 60.3723 47.4799 55.4894 58.8385C53.5511 63.3476 53.1764 68.2134 54.1237 72.783L55.9174 90.1157C56.6814 97.499 64.5383 101.817 70.6463 98.2108L86.4346 88.8888C86.7596 88.7084 87.0802 88.5192 87.3959 88.3212L87.6282 88.184L87.6193 88.1791Z" fill="#339A57"/>
<path d="M82.5647 51.983L73.5337 71.038L66.8186 85.2163L62.9805 93.3076" stroke="#78C885" stroke-width="5.61538" stroke-miterlimit="10" stroke-linecap="round" stroke-linejoin="round"/>
<path d="M60.5415 61.928L69.3199 78.3993" stroke="#78C885" stroke-width="5.61538" stroke-miterlimit="10" stroke-linecap="round" stroke-linejoin="round"/>
<path d="M68.396 51.427L75.0639 66.7304" stroke="#78C885" stroke-width="5.61538" stroke-miterlimit="10" stroke-linecap="round" stroke-linejoin="round"/>
<path d="M89.7417 72.6699L72.5794 73.2318" stroke="#78C885" stroke-width="5.61538" stroke-miterlimit="10" stroke-linecap="round" stroke-linejoin="round"/>
</g>
<defs>
<clipPath id="clip0_4028_19137">
<rect width="143.853" height="143.853" fill="white" transform="translate(0.146973 0.687988)"/>
</clipPath>
</defs>
</svg>
