<?xml version="1.0" encoding="UTF-8"?>
<svg xmlns="http://www.w3.org/2000/svg" xmlns:xlink="http://www.w3.org/1999/xlink" width="328pt" height="184pt" viewBox="0 0 328 184" version="1.1">
<defs>
<filter id="alpha" filterUnits="objectBoundingBox" x="0%" y="0%" width="100%" height="100%">
  <feColorMatrix type="matrix" in="SourceGraphic" values="0 0 0 0 1 0 0 0 0 1 0 0 0 0 1 0 0 0 1 0"/>
</filter>
<clipPath id="clip1">
  <rect width="328" height="184"/>
</clipPath>
<g id="surface14" clip-path="url(#clip1)">
<rect x="0" y="0" width="328" height="184" style="fill:rgb(0%,0%,0%);fill-opacity:1;stroke:none;"/>
</g>
<mask id="mask0">
  <g filter="url(#alpha)">
<use xlink:href="#surface14"/>
  </g>
</mask>
<clipPath id="clip3">
  <rect width="328" height="184"/>
</clipPath>
<g id="surface10" clip-path="url(#clip3)">
<path style=" stroke:none;fill-rule:nonzero;fill:rgb(0%,0%,0%);fill-opacity:1;" d="M 36.484375 0 L 292.117188 0 L 292.117188 184.898438 L 36.484375 184.898438 Z M 36.484375 0 "/>
</g>
<mask id="mask1">
  <g filter="url(#alpha)">
<use xlink:href="#surface10"/>
  </g>
</mask>
<clipPath id="clip4">
  <rect width="328" height="184"/>
</clipPath>
<g id="surface11" clip-path="url(#clip4)">
<path style=" stroke:none;fill-rule:nonzero;fill:rgb(88.233948%,74.900818%,96.861267%);fill-opacity:1;" d="M 160.460938 64.054688 C 129.199219 64.054688 103.140625 87.632813 100.894531 121.195313 C 115.667969 135.496094 137.175781 144.539063 161.167969 144.539063 C 184.449219 144.539063 205.488281 136.027344 220.203125 122.378906 C 218.371094 88.164063 192.074219 64.054688 160.460938 64.054688 Z M 159.75 105.773438 C 160.871094 105.773438 161.816406 106.71875 161.816406 107.84375 C 161.816406 108.964844 160.871094 109.910156 159.75 109.910156 C 158.628906 109.910156 157.683594 108.964844 157.683594 107.84375 C 157.683594 106.71875 158.628906 105.773438 159.75 105.773438 Z M 140.605469 112.453125 C 133.691406 112.453125 128.078125 106.835938 128.078125 99.921875 C 128.078125 93.011719 133.691406 87.394531 140.605469 87.394531 C 147.519531 87.394531 153.132813 93.011719 153.132813 99.921875 C 153.132813 106.835938 147.519531 112.453125 140.605469 112.453125 Z M 167.90625 117.238281 L 156.027344 119.484375 C 155.96875 119.484375 155.851563 119.484375 155.789063 119.484375 C 155.140625 119.484375 154.609375 119.011719 154.492188 118.359375 C 154.371094 117.652344 154.84375 116.941406 155.554688 116.765625 L 167.433594 114.519531 C 168.140625 114.402344 168.851563 114.875 169.027344 115.582031 C 169.085938 116.410156 168.613281 117.121094 167.90625 117.238281 Z M 180.3125 112.453125 C 173.398438 112.453125 167.785156 106.835938 167.785156 99.921875 C 167.785156 93.011719 173.398438 87.394531 180.3125 87.394531 C 187.226563 87.394531 192.839844 93.011719 192.839844 99.921875 C 192.839844 106.835938 187.226563 112.453125 180.3125 112.453125 Z M 180.3125 112.453125 "/>
<path style=" stroke:none;fill-rule:nonzero;fill:rgb(100%,100%,100%);fill-opacity:1;" d="M 140.605469 87.394531 C 133.691406 87.394531 128.078125 93.007813 128.078125 99.921875 C 128.078125 106.835938 133.691406 112.449219 140.605469 112.449219 C 147.519531 112.449219 153.132813 106.835938 153.132813 99.921875 C 153.132813 93.007813 147.519531 87.394531 140.605469 87.394531 Z M 140.605469 104.707031 C 136.230469 104.707031 132.6875 101.164063 132.6875 96.789063 C 132.6875 92.417969 136.230469 88.871094 140.605469 88.871094 C 144.976563 88.871094 148.523438 92.417969 148.523438 96.789063 C 148.523438 101.164063 144.976563 104.707031 140.605469 104.707031 Z M 140.605469 104.707031 "/>
<path style=" stroke:none;fill-rule:nonzero;fill:rgb(28.627014%,7.058716%,28.627014%);fill-opacity:1;" d="M 140.605469 88.8125 C 136.230469 88.8125 132.6875 92.359375 132.6875 96.730469 C 132.6875 101.105469 136.230469 104.648438 140.605469 104.648438 C 144.976563 104.648438 148.523438 101.105469 148.523438 96.730469 C 148.523438 92.359375 144.976563 88.8125 140.605469 88.8125 Z M 140.605469 88.8125 "/>
<path style=" stroke:none;fill-rule:nonzero;fill:rgb(100%,100%,100%);fill-opacity:1;" d="M 180.316406 87.394531 C 173.402344 87.394531 167.789063 93.007813 167.789063 99.921875 C 167.789063 106.835938 173.402344 112.449219 180.316406 112.449219 C 187.226563 112.449219 192.84375 106.835938 192.84375 99.921875 C 192.84375 93.007813 187.226563 87.394531 180.316406 87.394531 Z M 180.316406 104.707031 C 175.941406 104.707031 172.394531 101.164063 172.394531 96.789063 C 172.394531 92.417969 175.941406 88.871094 180.316406 88.871094 C 184.6875 88.871094 188.234375 92.417969 188.234375 96.789063 C 188.234375 101.164063 184.6875 104.707031 180.316406 104.707031 Z M 180.316406 104.707031 "/>
<path style=" stroke:none;fill-rule:nonzero;fill:rgb(28.627014%,7.058716%,28.627014%);fill-opacity:1;" d="M 180.3125 88.8125 C 175.941406 88.8125 172.394531 92.359375 172.394531 96.730469 C 172.394531 101.105469 175.941406 104.648438 180.3125 104.648438 C 184.6875 104.648438 188.234375 101.105469 188.234375 96.730469 C 188.234375 92.359375 184.6875 88.8125 180.3125 88.8125 Z M 180.3125 88.8125 "/>
<path style=" stroke:none;fill-rule:nonzero;fill:rgb(28.627014%,7.058716%,28.627014%);fill-opacity:1;" d="M 159.75 109.910156 C 160.875 109.910156 161.820313 108.964844 161.820313 107.839844 C 161.820313 106.71875 160.875 105.773438 159.75 105.773438 C 158.628906 105.773438 157.683594 106.71875 157.683594 107.839844 C 157.683594 108.964844 158.628906 109.910156 159.75 109.910156 Z M 159.75 109.910156 "/>
<path style=" stroke:none;fill-rule:nonzero;fill:rgb(28.627014%,7.058716%,28.627014%);fill-opacity:1;" d="M 167.375 114.636719 L 155.496094 116.882813 C 154.785156 117.003906 154.3125 117.710938 154.433594 118.480469 C 154.550781 119.128906 155.140625 119.601563 155.730469 119.601563 C 155.792969 119.601563 155.910156 119.601563 155.96875 119.601563 L 167.847656 117.355469 C 168.554688 117.238281 169.027344 116.53125 168.910156 115.761719 C 168.851563 114.933594 168.140625 114.460938 167.375 114.636719 Z M 167.375 114.636719 "/>
<path style=" stroke:none;fill-rule:nonzero;fill:rgb(33.724976%,67.0578%,93.72406%);fill-opacity:1;" d="M 132.378906 155.21875 C 133.644531 155.550781 134.933594 154.796875 135.265625 153.535156 C 135.597656 152.269531 134.84375 150.980469 133.582031 150.648438 Z M 109.625 140.371094 C 108.527344 139.660156 107.0625 139.976563 106.355469 141.070313 C 105.644531 142.167969 105.960938 143.628906 107.054688 144.339844 Z M 133.582031 150.648438 C 124.574219 148.28125 116.417969 144.769531 109.625 140.371094 L 107.054688 144.339844 C 114.324219 149.042969 122.953125 152.742188 132.378906 155.21875 Z M 133.582031 150.648438 "/>
<path style=" stroke:none;fill-rule:nonzero;fill:rgb(33.724976%,67.0578%,93.72406%);fill-opacity:1;" d="M 207.339844 148.117188 C 208.5 147.515625 208.953125 146.089844 208.355469 144.929688 C 207.757813 143.769531 206.332031 143.316406 205.171875 143.914063 Z M 143.277344 152.722656 C 141.988281 152.519531 140.777344 153.398438 140.574219 154.6875 C 140.371094 155.976563 141.25 157.1875 142.539063 157.390625 Z M 205.171875 143.914063 C 192.832031 150.285156 177.316406 154.050781 160.457031 154.050781 L 160.457031 158.78125 C 177.992188 158.78125 194.265625 154.863281 207.339844 148.117188 Z M 160.457031 154.050781 C 154.554688 154.050781 148.765625 153.589844 143.277344 152.722656 L 142.539063 157.390625 C 148.277344 158.296875 154.308594 158.78125 160.457031 158.78125 Z M 160.457031 154.050781 "/>
<path style=" stroke:none;fill-rule:nonzero;fill:rgb(33.724976%,67.0578%,93.72406%);fill-opacity:1;" d="M 160.046875 5.316406 C 160.046875 4.011719 158.988281 2.953125 157.679688 2.953125 C 156.375 2.953125 155.316406 4.011719 155.316406 5.316406 Z M 155.316406 71.203125 C 155.316406 72.511719 156.375 73.566406 157.679688 73.566406 C 158.988281 73.566406 160.046875 72.511719 160.046875 71.203125 Z M 155.316406 5.316406 L 155.316406 71.203125 L 160.046875 71.203125 L 160.046875 5.316406 Z M 155.316406 5.316406 "/>
<path style=" stroke:none;fill-rule:nonzero;fill:rgb(33.724976%,67.0578%,93.72406%);fill-opacity:1;" d="M 170.695313 58.273438 C 169.757813 59.179688 169.730469 60.675781 170.636719 61.617188 C 171.542969 62.558594 173.039063 62.585938 173.976563 61.679688 Z M 182.191406 53.761719 C 183.132813 52.855469 183.160156 51.359375 182.253906 50.417969 C 181.347656 49.476563 179.851563 49.449219 178.910156 50.355469 Z M 173.976563 61.679688 L 182.191406 53.761719 L 178.910156 50.355469 L 170.695313 58.273438 Z M 173.976563 61.679688 "/>
<path style=" stroke:none;fill-rule:nonzero;fill:rgb(33.724976%,67.0578%,93.72406%);fill-opacity:1;" d="M 262.546875 158.601563 C 261.402344 158.417969 260.328125 159.199219 260.144531 160.34375 C 259.964844 161.484375 260.742188 162.558594 261.886719 162.742188 Z M 245.660156 162.738281 C 246.800781 162.550781 247.574219 161.46875 247.382813 160.328125 C 247.191406 159.183594 246.113281 158.414063 244.972656 158.605469 Z M 261.886719 162.742188 C 265.636719 163.339844 268.679688 164.328125 270.722656 165.492188 C 272.875 166.71875 273.355469 167.785156 273.355469 168.355469 L 277.550781 168.355469 C 277.550781 165.4375 275.3125 163.28125 272.796875 161.847656 C 270.171875 160.351563 266.59375 159.246094 262.546875 158.601563 Z M 273.355469 168.355469 C 273.355469 168.714844 273.175781 169.289063 272.339844 170.050781 C 271.503906 170.8125 270.175781 171.59375 268.355469 172.292969 C 264.730469 173.683594 259.574219 174.589844 253.765625 174.589844 L 253.765625 178.78125 C 259.953125 178.78125 265.640625 177.824219 269.859375 176.207031 C 271.960938 175.398438 273.804688 174.382813 275.160156 173.152344 C 276.519531 171.917969 277.550781 170.296875 277.550781 168.355469 Z M 253.765625 174.589844 C 247.988281 174.589844 242.832031 173.683594 239.195313 172.289063 C 237.371094 171.589844 236.039063 170.808594 235.195313 170.046875 C 234.355469 169.285156 234.175781 168.710938 234.175781 168.355469 L 229.984375 168.355469 C 229.984375 170.304688 231.023438 171.921875 232.382813 173.152344 C 233.742188 174.386719 235.589844 175.398438 237.695313 176.207031 C 241.921875 177.824219 247.609375 178.78125 253.765625 178.78125 Z M 234.175781 168.355469 C 234.175781 167.824219 234.640625 166.773438 236.808594 165.535156 C 238.855469 164.371094 241.90625 163.367188 245.660156 162.738281 L 244.972656 158.605469 C 240.925781 159.277344 237.355469 160.402344 234.734375 161.894531 C 232.234375 163.316406 229.984375 165.457031 229.984375 168.355469 Z M 234.175781 168.355469 "/>
<path style=" stroke:none;fill-rule:nonzero;fill:rgb(33.724976%,67.0578%,93.72406%);fill-opacity:1;" d="M 238.632813 152.324219 C 237.613281 152.523438 236.945313 153.511719 237.144531 154.53125 C 237.34375 155.550781 238.332031 156.21875 239.351563 156.019531 Z M 267.671875 181.15625 C 266.652344 181.339844 265.972656 182.320313 266.15625 183.34375 C 266.339844 184.363281 267.316406 185.042969 268.339844 184.859375 Z M 239.351563 156.019531 C 243.773438 155.15625 248.675781 154.695313 253.824219 154.695313 L 253.824219 150.929688 C 248.457031 150.929688 243.3125 151.414063 238.632813 152.324219 Z M 253.824219 154.695313 C 263.675781 154.695313 272.527344 156.421875 278.84375 159.140625 C 282.007813 160.503906 284.449219 162.078125 286.070313 163.730469 C 287.6875 165.371094 288.402344 166.992188 288.402344 168.53125 L 292.167969 168.53125 C 292.167969 165.726563 290.835938 163.210938 288.753906 161.089844 C 286.683594 158.980469 283.773438 157.167969 280.332031 155.6875 C 273.445313 152.71875 264.0625 150.929688 253.824219 150.929688 Z M 288.402344 168.53125 C 288.402344 170.828125 286.769531 173.359375 283.050781 175.734375 C 279.394531 178.074219 274.078125 180.003906 267.671875 181.15625 L 268.339844 184.859375 C 275.054688 183.652344 280.878906 181.589844 285.078125 178.90625 C 289.21875 176.257813 292.167969 172.734375 292.167969 168.53125 Z M 288.402344 168.53125 "/>
<path style=" stroke:none;fill-rule:nonzero;fill:rgb(33.724976%,67.0578%,93.72406%);fill-opacity:1;" d="M 239.308594 184.859375 C 240.328125 185.046875 241.308594 184.367188 241.492188 183.34375 C 241.679688 182.320313 241 181.34375 239.976563 181.15625 Z M 227.855469 159.539063 C 228.796875 159.097656 229.199219 157.976563 228.757813 157.035156 C 228.316406 156.09375 227.195313 155.691406 226.253906 156.132813 Z M 239.976563 181.15625 C 233.601563 180.003906 228.285156 178.074219 224.617188 175.734375 C 220.890625 173.355469 219.246094 170.824219 219.246094 168.53125 L 215.484375 168.53125 C 215.484375 172.738281 218.449219 176.265625 222.59375 178.90625 C 226.800781 181.589844 232.625 183.652344 239.308594 184.859375 Z M 219.246094 168.53125 C 219.246094 165.582031 221.933594 162.324219 227.855469 159.539063 L 226.253906 156.132813 C 220.125 159.019531 215.484375 163.207031 215.484375 168.53125 Z M 219.246094 168.53125 "/>
<path style=" stroke:none;fill-rule:nonzero;fill:rgb(33.724976%,67.0578%,93.72406%);fill-opacity:1;" d="M 78.507813 134.03125 C 77.535156 133.601563 76.398438 134.042969 75.96875 135.015625 C 75.539063 135.988281 75.980469 137.125 76.953125 137.554688 Z M 68.25 144.40625 C 67.199219 144.546875 66.460938 145.519531 66.605469 146.570313 C 66.75 147.625 67.71875 148.363281 68.769531 148.21875 Z M 76.953125 137.554688 C 78.097656 138.058594 78.871094 138.578125 79.332031 139.039063 C 79.78125 139.488281 79.824219 139.765625 79.824219 139.871094 L 83.671875 139.871094 C 83.671875 138.4375 82.972656 137.238281 82.050781 136.316406 C 81.140625 135.402344 79.902344 134.648438 78.507813 134.03125 Z M 79.824219 139.871094 C 79.824219 139.949219 79.796875 140.191406 79.390625 140.613281 C 78.976563 141.046875 78.273438 141.539063 77.226563 142.042969 C 75.136719 143.039063 72.039063 143.886719 68.25 144.40625 L 68.769531 148.21875 C 72.78125 147.671875 76.304688 146.746094 78.882813 145.515625 C 80.171875 144.898438 81.316406 144.164063 82.164063 143.28125 C 83.019531 142.390625 83.671875 141.242188 83.671875 139.871094 Z M 79.824219 139.871094 "/>
<path style=" stroke:none;fill-rule:nonzero;fill:rgb(33.724976%,67.0578%,93.72406%);fill-opacity:1;" d="M 51.351563 148.21875 C 52.402344 148.363281 53.375 147.625 53.519531 146.574219 C 53.660156 145.519531 52.925781 144.550781 51.871094 144.40625 Z M 60.0625 134.765625 C 61.125 134.765625 61.984375 133.902344 61.984375 132.839844 C 61.984375 131.777344 61.125 130.914063 60.0625 130.914063 Z M 51.871094 144.40625 C 48.082031 143.890625 44.988281 143.042969 42.898438 142.042969 C 41.847656 141.542969 41.148438 141.046875 40.734375 140.617188 C 40.328125 140.195313 40.296875 139.949219 40.296875 139.871094 L 36.449219 139.871094 C 36.449219 141.242188 37.101563 142.394531 37.960938 143.285156 C 38.808594 144.167969 39.953125 144.902344 41.238281 145.515625 C 43.816406 146.746094 47.339844 147.671875 51.351563 148.21875 Z M 40.296875 139.871094 C 40.296875 139.757813 40.367188 139.328125 41.25 138.652344 C 42.101563 137.996094 43.460938 137.324219 45.3125 136.722656 C 48.996094 135.53125 54.207031 134.765625 60.0625 134.765625 L 60.0625 130.914063 C 53.921875 130.914063 48.289063 131.714844 44.125 133.0625 C 42.054688 133.734375 40.242188 134.574219 38.902344 135.601563 C 37.59375 136.609375 36.449219 138.035156 36.449219 139.871094 Z M 40.296875 139.871094 "/>
<path style=" stroke:none;fill-rule:nonzero;fill:rgb(33.724976%,67.0578%,93.72406%);fill-opacity:1;" d="M 92.503906 7.503906 C 92.503906 6.199219 91.445313 5.140625 90.140625 5.140625 C 88.832031 5.140625 87.777344 6.199219 87.777344 7.503906 Z M 87.777344 38.292969 C 87.777344 39.597656 88.832031 40.65625 90.140625 40.65625 C 91.445313 40.65625 92.503906 39.597656 92.503906 38.292969 Z M 87.777344 7.503906 L 87.777344 38.292969 L 92.503906 38.292969 L 92.503906 7.503906 Z M 87.777344 7.503906 "/>
<path style=" stroke:none;fill-rule:nonzero;fill:rgb(33.724976%,67.0578%,93.72406%);fill-opacity:1;" d="M 263.101563 52.058594 C 263.101563 50.753906 262.042969 49.695313 260.738281 49.695313 C 259.433594 49.695313 258.375 50.753906 258.375 52.058594 Z M 258.375 86.332031 C 258.375 87.636719 259.433594 88.695313 260.738281 88.695313 C 262.042969 88.695313 263.101563 87.636719 263.101563 86.332031 Z M 258.375 52.058594 L 258.375 86.332031 L 263.101563 86.332031 L 263.101563 52.058594 Z M 258.375 52.058594 "/>
<path style=" stroke:none;fill-rule:nonzero;fill:rgb(33.724976%,67.0578%,93.72406%);fill-opacity:1;" d="M 250.398438 2.363281 C 250.398438 1.058594 249.339844 0 248.035156 0 C 246.726563 0 245.671875 1.058594 245.671875 2.363281 Z M 245.671875 56.019531 C 245.671875 57.324219 246.726563 58.382813 248.035156 58.382813 C 249.339844 58.382813 250.398438 57.324219 250.398438 56.019531 Z M 245.671875 2.363281 L 245.671875 56.019531 L 250.398438 56.019531 L 250.398438 2.363281 Z M 245.671875 2.363281 "/>
<path style=" stroke:none;fill-rule:nonzero;fill:rgb(33.724976%,67.0578%,93.72406%);fill-opacity:1;" d="M 56.042969 64.054688 C 56.042969 62.75 54.984375 61.691406 53.679688 61.691406 C 52.375 61.691406 51.316406 62.75 51.316406 64.054688 Z M 53.679688 93.070313 L 52.085938 94.816406 C 52.777344 95.445313 53.777344 95.609375 54.632813 95.230469 C 55.488281 94.855469 56.042969 94.003906 56.042969 93.070313 Z M 43.097656 80.214844 C 42.136719 79.332031 40.640625 79.402344 39.761719 80.367188 C 38.878906 81.332031 38.949219 82.824219 39.914063 83.707031 Z M 51.316406 64.054688 L 51.316406 93.070313 L 56.042969 93.070313 L 56.042969 64.054688 Z M 55.273438 91.324219 L 43.097656 80.214844 L 39.914063 83.707031 L 52.085938 94.816406 Z M 55.273438 91.324219 "/>
</g>
<clipPath id="clip2">
  <rect width="328" height="184"/>
</clipPath>
<g id="surface5" clip-path="url(#clip2)">
<use xlink:href="#surface11" mask="url(#mask1)"/>
</g>
</defs>
<g id="surface1">
<use xlink:href="#surface5" mask="url(#mask0)"/>
</g>
</svg>
