<?xml version="1.0" encoding="UTF-8"?>
<svg xmlns="http://www.w3.org/2000/svg" xmlns:xlink="http://www.w3.org/1999/xlink" width="328pt" height="184pt" viewBox="0 0 328 184" version="1.1">
<defs>
<filter id="alpha" filterUnits="objectBoundingBox" x="0%" y="0%" width="100%" height="100%">
  <feColorMatrix type="matrix" in="SourceGraphic" values="0 0 0 0 1 0 0 0 0 1 0 0 0 0 1 0 0 0 1 0"/>
</filter>
<clipPath id="clip1">
  <rect width="328" height="184"/>
</clipPath>
<g id="surface8" clip-path="url(#clip1)">
<path style=" stroke:none;fill-rule:nonzero;fill:rgb(0%,0%,0%);fill-opacity:1;" d="M 108.105469 26 L 240.296875 26 L 240.296875 163 L 108.105469 163 Z M 108.105469 26 "/>
</g>
<mask id="mask0">
  <g filter="url(#alpha)">
<use xlink:href="#surface8"/>
  </g>
</mask>
<clipPath id="clip2">
  <rect width="328" height="184"/>
</clipPath>
<g id="surface5" clip-path="url(#clip2)">
<path style=" stroke:none;fill-rule:nonzero;fill:rgb(88.233948%,74.900818%,96.861267%);fill-opacity:1;" d="M 206.855469 77.164063 C 206.855469 78.003906 206.800781 145.273438 206.800781 145.273438 L 206.746094 145.273438 C 206.746094 155.058594 198.804688 163 189.019531 163 C 181.804688 163 175.597656 158.695313 172.800781 152.488281 C 170.0625 158.246094 164.246094 162.21875 157.480469 162.21875 C 150.714844 162.21875 144.898438 158.246094 142.160156 152.488281 C 139.417969 158.695313 133.210938 163 125.941406 163 C 116.15625 163 108.214844 155.058594 108.214844 145.273438 L 108.160156 145.273438 C 108.160156 145.273438 108.105469 78.003906 108.105469 77.164063 C 108.105469 47.359375 130.472656 26 157.480469 26 C 184.488281 26 206.855469 47.359375 206.855469 77.164063 Z M 206.855469 77.164063 "/>
<path style=" stroke:none;fill-rule:nonzero;fill:rgb(82.351685%,67.842102%,90.194702%);fill-opacity:1;" d="M 206.800781 125.980469 C 206.746094 135.765625 198.804688 143.707031 189.019531 143.707031 C 184.488281 143.707031 180.351563 141.972656 177.21875 139.175781 C 174.703125 136.882813 170.957031 136.828125 168.328125 139.007813 C 165.363281 141.414063 161.617188 142.921875 157.535156 142.921875 C 153.453125 142.921875 149.652344 141.46875 146.742188 139.007813 C 144.117188 136.828125 140.367188 136.882813 137.851563 139.175781 C 134.722656 141.972656 130.582031 143.707031 126.054688 143.707031 C 116.269531 143.707031 108.328125 135.765625 108.328125 125.980469 L 108.273438 133.363281 L 108.273438 145.160156 L 108.328125 145.160156 C 108.328125 154.945313 116.269531 162.886719 126.054688 162.886719 C 133.265625 162.886719 139.472656 158.582031 142.269531 152.375 C 145.011719 158.132813 150.824219 162.105469 157.59375 162.105469 C 164.359375 162.105469 170.230469 158.132813 172.914063 152.375 C 175.652344 158.582031 181.917969 162.886719 189.128906 162.886719 C 198.914063 162.886719 206.855469 154.945313 206.855469 145.160156 Z M 206.800781 125.980469 "/>
<path style=" stroke:none;fill-rule:nonzero;fill:rgb(28.627014%,7.058716%,28.627014%);fill-opacity:1;" d="M 151.316406 79.597656 C 150.804688 79.945313 150.671875 80.640625 151.019531 81.152344 C 151.367188 81.660156 152.0625 81.792969 152.574219 81.449219 Z M 162.367188 81.433594 C 162.871094 81.792969 163.566406 81.675781 163.925781 81.171875 C 164.285156 80.671875 164.167969 79.972656 163.667969 79.613281 Z M 152.574219 81.449219 C 153.972656 80.5 155.65625 79.90625 157.480469 79.90625 L 157.480469 77.671875 C 155.164063 77.671875 153.046875 78.421875 151.316406 79.597656 Z M 157.480469 79.90625 C 159.324219 79.90625 160.996094 80.453125 162.367188 81.433594 L 163.667969 79.613281 C 161.90625 78.355469 159.777344 77.671875 157.480469 77.671875 Z M 157.480469 79.90625 "/>
<path style=" stroke:none;fill-rule:nonzero;fill:rgb(28.627014%,7.058716%,28.627014%);fill-opacity:1;" d="M 157.480469 74.203125 C 158.4375 74.203125 159.214844 73.425781 159.214844 72.46875 C 159.214844 71.511719 158.4375 70.734375 157.480469 70.734375 C 156.523438 70.734375 155.746094 71.511719 155.746094 72.46875 C 155.746094 73.425781 156.523438 74.203125 157.480469 74.203125 Z M 157.480469 74.203125 "/>
<path style=" stroke:none;fill-rule:nonzero;fill:rgb(100%,100%,100%);fill-opacity:1;" d="M 141.039063 77.554688 C 146.785156 77.554688 151.441406 72.898438 151.441406 67.15625 C 151.441406 61.410156 146.785156 56.753906 141.039063 56.753906 C 135.296875 56.753906 130.640625 61.410156 130.640625 67.15625 C 130.640625 72.898438 135.296875 77.554688 141.039063 77.554688 Z M 141.039063 77.554688 "/>
<path style=" stroke:none;fill-rule:nonzero;fill:rgb(28.627014%,7.058716%,28.627014%);fill-opacity:1;" d="M 138.410156 73.699219 C 142.023438 73.699219 144.953125 70.769531 144.953125 67.15625 C 144.953125 63.542969 142.023438 60.613281 138.410156 60.613281 C 134.796875 60.613281 131.871094 63.542969 131.871094 67.15625 C 131.871094 70.769531 134.796875 73.699219 138.410156 73.699219 Z M 138.410156 73.699219 "/>
<path style=" stroke:none;fill-rule:nonzero;fill:rgb(100%,100%,100%);fill-opacity:1;" d="M 173.921875 77.554688 C 179.664063 77.554688 184.320313 72.898438 184.320313 67.15625 C 184.320313 61.410156 179.664063 56.753906 173.921875 56.753906 C 168.175781 56.753906 163.519531 61.410156 163.519531 67.15625 C 163.519531 72.898438 168.175781 77.554688 173.921875 77.554688 Z M 173.921875 77.554688 "/>
<path style=" stroke:none;fill-rule:nonzero;fill:rgb(28.627014%,7.058716%,28.627014%);fill-opacity:1;" d="M 171.292969 73.699219 C 174.90625 73.699219 177.835938 70.769531 177.835938 67.15625 C 177.835938 63.542969 174.90625 60.613281 171.292969 60.613281 C 167.679688 60.613281 164.75 63.542969 164.75 67.15625 C 164.75 70.769531 167.679688 73.699219 171.292969 73.699219 Z M 171.292969 73.699219 "/>
<path style=" stroke:none;fill-rule:nonzero;fill:rgb(82.351685%,67.842102%,90.194702%);fill-opacity:1;" d="M 131.871094 71.964844 C 133.601563 75.265625 137.070313 77.5 141.039063 77.5 C 145.011719 77.5 148.476563 75.265625 150.210938 71.964844 Z M 131.871094 71.964844 "/>
<path style=" stroke:none;fill-rule:nonzero;fill:rgb(82.351685%,67.842102%,90.194702%);fill-opacity:1;" d="M 164.75 71.964844 C 166.484375 75.265625 169.949219 77.5 173.921875 77.5 C 177.890625 77.5 181.355469 75.265625 183.089844 71.964844 Z M 164.75 71.964844 "/>
<path style=" stroke:none;fill-rule:nonzero;fill:rgb(54.116821%,27.058411%,60.783386%);fill-opacity:1;" d="M 189.242188 125.980469 C 190.023438 118.597656 192.371094 110.769531 196.175781 102.941406 C 197.238281 100.761719 198.410156 98.523438 199.699219 96.34375 C 200.703125 94.667969 201.710938 93.042969 202.828125 91.421875 C 204.730469 88.625 206.742188 85.941406 208.925781 83.316406 C 208.925781 83.257813 208.980469 83.257813 208.980469 83.203125 C 209.035156 83.148438 209.035156 83.089844 209.09375 83.035156 C 212.503906 78.953125 216.136719 75.207031 219.996094 71.851563 C 220.554688 71.402344 221.113281 70.902344 221.675781 70.453125 L 220.78125 69.335938 L 220.21875 68.664063 C 219.550781 69.222656 218.878906 69.78125 218.261719 70.339844 C 215.523438 72.746094 212.78125 75.429688 210.210938 78.28125 C 207.023438 81.804688 204.058594 85.550781 201.375 89.464844 C 201.320313 89.523438 201.265625 89.578125 201.265625 89.632813 C 201.207031 89.6875 201.207031 89.746094 201.152344 89.800781 C 200.871094 90.191406 200.59375 90.640625 200.3125 91.03125 C 199.417969 92.375 198.578125 93.714844 197.796875 95.113281 C 197.238281 96.007813 196.734375 96.957031 196.230469 97.851563 C 191.03125 107.304688 187.84375 116.921875 186.949219 125.925781 L 189.242188 125.925781 Z M 189.242188 125.980469 "/>
<path style=" stroke:none;fill-rule:nonzero;fill:rgb(54.116821%,27.058411%,60.783386%);fill-opacity:1;" d="M 194.386719 68.5 C 197.292969 72.023438 201.488281 90.027344 201.488281 90.027344 C 201.488281 90.027344 184.601563 82.421875 181.691406 78.957031 C 178.785156 75.433594 179.289063 70.289063 182.8125 67.378906 C 186.332031 64.527344 191.476563 65.03125 194.386719 68.5 Z M 194.386719 68.5 "/>
<path style=" stroke:none;fill-rule:nonzero;fill:rgb(54.116821%,27.058411%,60.783386%);fill-opacity:1;" d="M 213.117188 55.859375 C 214.179688 60.277344 210.210938 78.339844 210.210938 78.339844 C 210.210938 78.339844 198.300781 64.191406 197.179688 59.773438 C 196.0625 55.359375 198.804688 50.941406 203.164063 49.820313 C 207.582031 48.757813 212.054688 51.445313 213.117188 55.859375 Z M 213.117188 55.859375 "/>
<path style=" stroke:none;fill-rule:nonzero;fill:rgb(54.116821%,27.058411%,60.783386%);fill-opacity:1;" d="M 238.003906 63.351563 C 234.871094 66.597656 217.425781 72.859375 217.425781 72.859375 C 217.425781 72.859375 223.015625 55.1875 226.148438 51.945313 C 229.277344 48.703125 234.480469 48.589844 237.722656 51.722656 C 241.023438 54.910156 241.132813 60.109375 238.003906 63.351563 Z M 238.003906 63.351563 "/>
<path style=" stroke:none;fill-rule:nonzero;fill:rgb(54.116821%,27.058411%,60.783386%);fill-opacity:1;" d="M 226.820313 96.847656 C 222.457031 95.617188 208.757813 83.148438 208.757813 83.148438 C 208.757813 83.148438 226.984375 79.792969 231.347656 81.078125 C 235.710938 82.363281 238.226563 86.839844 236.996094 91.199219 C 235.710938 95.5625 231.125 98.078125 226.820313 96.847656 Z M 226.820313 96.847656 "/>
<path style=" stroke:none;fill-rule:nonzero;fill:rgb(82.351685%,67.842102%,90.194702%);fill-opacity:1;" d="M 191.980469 106.746094 C 199.796875 106.746094 206.128906 100.414063 206.128906 92.601563 C 206.128906 84.785156 199.796875 78.453125 191.980469 78.453125 C 184.167969 78.453125 177.835938 84.785156 177.835938 92.601563 C 177.835938 100.414063 184.167969 106.746094 191.980469 106.746094 Z M 191.980469 106.746094 "/>
</g>
</defs>
<g id="surface1">
<rect x="0" y="0" width="328" height="184" style="fill:rgb(100%,100%,100%);fill-opacity:1;stroke:none;"/>
<use xlink:href="#surface5" mask="url(#mask0)"/>
</g>
</svg>
