<svg width="329" height="184" viewBox="0 0 329 184" fill="none" xmlns="http://www.w3.org/2000/svg">
<g clip-path="url(#clip0_30301_259466)">
<g clip-path="url(#clip1_30301_259466)">
<path d="M272.349 102.251C272.349 102.841 272.306 151.643 272.306 151.643H272.263C272.263 158.742 266.503 164.517 259.389 164.517C254.162 164.517 249.655 161.392 247.639 156.913C245.666 161.075 241.432 163.955 236.508 163.955C231.583 163.955 227.364 161.089 225.391 156.913C223.389 161.392 218.882 164.517 213.64 164.517C206.541 164.517 200.767 158.757 200.767 151.643H200.738C200.738 151.643 200.695 102.841 200.695 102.251C200.695 80.6507 216.895 65.1562 236.508 65.1562C256.12 65.1562 272.32 80.6363 272.32 102.251H272.349Z" fill="#C5BDF3"/>
<path d="M272.32 137.688H272.277C272.277 144.787 266.517 150.561 259.403 150.561C256.106 150.561 253.11 149.323 250.835 147.292C248.992 145.651 246.285 145.608 244.384 147.177C242.253 148.934 239.517 150 236.536 150C233.555 150 230.834 148.948 228.702 147.177C226.802 145.608 224.094 145.651 222.251 147.292C219.976 149.323 216.981 150.561 213.683 150.561C206.584 150.561 200.81 144.801 200.81 137.688L200.781 143.059V151.627H200.81C200.81 158.726 206.57 164.5 213.683 164.5C218.925 164.5 223.418 161.376 225.434 156.897C227.406 161.059 231.64 163.939 236.55 163.939C241.461 163.939 245.694 161.073 247.682 156.897C249.683 161.376 254.19 164.5 259.432 164.5C266.546 164.5 272.306 158.74 272.306 151.627L272.349 137.688H272.32Z" fill="#AEA9E4"/>
<path d="M245.565 109.638C250.544 109.638 254.58 105.602 254.58 100.624C254.58 95.6453 250.544 91.6094 245.565 91.6094C240.587 91.6094 236.551 95.6453 236.551 100.624C236.551 105.602 240.587 109.638 245.565 109.638Z" fill="white"/>
<path d="M243.333 106.327C246.483 106.327 249.036 103.774 249.036 100.624C249.036 97.4749 246.483 94.9219 243.333 94.9219C240.184 94.9219 237.631 97.4749 237.631 100.624C237.631 103.774 240.184 106.327 243.333 106.327Z" fill="#491249"/>
<path d="M219.76 109.638C224.739 109.638 228.775 105.602 228.775 100.624C228.775 95.6453 224.739 91.6094 219.76 91.6094C214.782 91.6094 210.746 95.6453 210.746 100.624C210.746 105.602 214.782 109.638 219.76 109.638Z" fill="white"/>
<path d="M217.528 106.327C220.677 106.327 223.23 103.774 223.23 100.624C223.23 97.4749 220.677 94.9219 217.528 94.9219C214.379 94.9219 211.826 97.4749 211.826 100.624C211.826 103.774 214.379 106.327 217.528 106.327Z" fill="#491249"/>
<path d="M135.794 36.1379L147.948 34.0067L138.66 14.2354L158.474 19.3043L158.632 6.25781L170.829 13.5154" stroke="#9482F7" stroke-width="5.76001" stroke-linecap="round" stroke-linejoin="round"/>
<path d="M180.736 98.0027C180.736 98.8091 180.679 165.035 180.679 165.035H180.621C180.621 174.683 172.802 182.502 163.154 182.502C156.055 182.502 149.935 178.254 147.213 172.177C144.535 177.837 138.789 181.725 132.107 181.725C125.426 181.725 119.695 177.822 117.016 172.177C114.295 178.269 108.189 182.502 101.075 182.502C91.4273 182.502 83.6081 174.683 83.6081 165.035H83.5649C83.5649 165.035 83.5073 98.8091 83.5073 98.0027C83.5073 68.6842 105.496 47.6602 132.107 47.6602C158.719 47.6602 180.707 68.6842 180.707 98.0027H180.736Z" fill="#E0BEF6"/>
<path d="M180.693 146.112H180.636C180.636 155.76 172.816 163.579 163.168 163.579C158.704 163.579 154.615 161.895 151.533 159.13C149.042 156.898 145.356 156.84 142.778 158.971C139.884 161.362 136.183 162.802 132.122 162.802C128.061 162.802 124.375 161.362 121.48 158.971C118.903 156.84 115.216 156.898 112.725 159.13C109.644 161.895 105.568 163.565 101.09 163.565C91.442 163.565 83.6228 155.746 83.6228 146.098L83.5796 153.384V165.019H83.6228C83.6228 174.667 91.442 182.487 101.09 182.487C108.204 182.487 114.309 178.239 117.031 172.162C119.709 177.821 125.455 181.709 132.122 181.709C138.789 181.709 144.549 177.807 147.228 172.162C149.949 178.253 156.069 182.487 163.168 182.487C172.831 182.487 180.636 174.667 180.636 165.019L180.693 146.098V146.112Z" fill="#D1ACE5"/>
<path d="M151.634 98.5662C157.264 98.5662 161.829 94.0017 161.829 88.371C161.829 82.7403 157.264 78.1758 151.634 78.1758C146.003 78.1758 141.438 82.7403 141.438 88.371C141.438 94.0017 146.003 98.5662 151.634 98.5662Z" fill="white"/>
<path d="M151.634 94.8204C155.197 94.8204 158.085 91.9321 158.085 88.3692C158.085 84.8063 155.197 81.918 151.634 81.918C148.071 81.918 145.183 84.8063 145.183 88.3692C145.183 91.9321 148.071 94.8204 151.634 94.8204Z" fill="#491249"/>
<path d="M119.104 98.5662C124.735 98.5662 129.3 94.0017 129.3 88.371C129.3 82.7403 124.735 78.1758 119.104 78.1758C113.474 78.1758 108.909 82.7403 108.909 88.371C108.909 94.0017 113.474 98.5662 119.104 98.5662Z" fill="white"/>
<path d="M119.104 94.8204C122.667 94.8204 125.555 91.9321 125.555 88.3692C125.555 84.8063 122.667 81.918 119.104 81.918C115.541 81.918 112.653 84.8063 112.653 88.3692C112.653 91.9321 115.541 94.8204 119.104 94.8204Z" fill="#491249"/>
<path d="M133.073 75.8789C134.65 71.4428 130.595 65.9505 124.015 63.6116C117.436 61.2727 110.824 62.9729 109.247 67.409C107.67 71.8452 111.725 77.3375 118.304 79.6764C124.884 82.0153 131.496 80.3151 133.073 75.8789Z" fill="#E0BEF6"/>
<path d="M136.528 97.3554C137.467 97.3554 138.228 96.5947 138.228 95.6562C138.228 94.7178 137.467 93.957 136.528 93.957C135.59 93.957 134.829 94.7178 134.829 95.6562C134.829 96.5947 135.59 97.3554 136.528 97.3554Z" fill="#491249"/>
<path d="M109.802 78.3906C115.231 81.8034 121.552 82.0914 128.608 78.8658" stroke="#031B0D" stroke-width="4.34881" stroke-linecap="round" stroke-linejoin="round"/>
<path d="M143.901 69.964C147.976 66.2344 155.781 66.3784 159.381 70.0792" stroke="#031B0D" stroke-width="4.13281" stroke-linecap="round" stroke-linejoin="round"/>
<path d="M142.792 100.594H127.96C125.694 100.594 123.856 102.431 123.856 104.698V104.712C123.856 106.979 125.694 108.816 127.96 108.816H142.792C145.059 108.816 146.896 106.979 146.896 104.712V104.698C146.896 102.431 145.059 100.594 142.792 100.594Z" fill="white"/>
<path d="M131.762 102.367V106.903" stroke="#EFE7F6" stroke-width="2.3904" stroke-linecap="round" stroke-linejoin="round"/>
<path d="M139.308 102.367V106.903" stroke="#EFE7F6" stroke-width="2.3904" stroke-linecap="round" stroke-linejoin="round"/>
<path d="M100.182 74.0136C100.182 74.244 100.182 74.4888 100.154 74.7192C100.154 74.8344 100.125 74.9352 100.125 75.0648C100.125 75.2808 100.082 75.4824 100.038 75.7128C99.3328 80.6664 95.6608 86.6568 91.2112 91.2072C91.2112 91.3944 91.2112 91.5384 91.2112 91.6968C91.2112 92.4744 91.2544 93.4104 91.312 94.476C91.6288 99.6457 92.3776 107.45 90.3904 110.618C89.8432 111.526 89.0512 112.058 87.9856 112.058C86.7472 112.058 85.1344 111.626 83.392 110.82C83.0896 110.69 82.7872 110.546 82.4848 110.374C76.9984 107.537 70.6768 101.359 70.6768 93.7128V93.1368C70.6768 90.804 70.8496 88.5144 71.2528 86.3112C72.736 77.6424 77.0992 70.1687 83.7808 65.8343C84.6016 65.3015 85.48 64.7975 86.3728 64.3655C86.3728 64.3655 86.4016 64.3655 86.416 64.3655C86.416 64.3655 86.4592 64.3367 86.4736 64.3367C86.56 64.3079 86.632 64.2791 86.7184 64.2647C87.7552 63.9047 88.8352 63.7031 89.9728 63.7031C95.416 63.7031 99.8656 68.0231 100.154 73.4664C100.154 73.668 100.154 73.8408 100.154 74.028L100.182 74.0136Z" fill="#E0BEF6"/>
<path d="M95.0997 68.4531C97.9941 70.1523 99.9813 73.2483 100.183 76.834C100.183 77.0212 100.183 77.2084 100.183 77.3956C100.183 77.626 100.183 77.8708 100.154 78.1012C100.154 78.2308 100.125 78.3316 100.125 78.4468C99.6645 83.5156 95.8629 89.8372 91.2261 94.5892" stroke="#D1ACE5" stroke-width="6.72481" stroke-linecap="round" stroke-linejoin="round"/>
</g>
</g>
<defs>
<clipPath id="clip0_30301_259466">
<rect width="328" height="184" fill="white" transform="translate(0.5)"/>
</clipPath>
<clipPath id="clip1_30301_259466">
<rect width="201.658" height="184.724" fill="white" transform="translate(70.6914 -2.22266)"/>
</clipPath>
</defs>
</svg>
