<svg width="328" height="185" viewBox="0 0 328 185" fill="none" xmlns="http://www.w3.org/2000/svg">
<g clip-path="url(#clip0_30301_258973)">
<g clip-path="url(#clip1_30301_258973)">
<path d="M155.459 48.5868C155.459 52.7802 154.806 56.8173 153.601 60.6152C152.847 62.9786 151.882 65.25 150.714 67.4019C150.153 68.441 149.555 69.4434 148.911 70.4182L148.819 70.5561C148.507 71.0251 148.185 71.4849 147.854 71.9355C147.661 72.2022 147.467 72.4597 147.256 72.7172C147.127 72.9011 146.989 73.0758 146.842 73.2598C146.842 73.269 146.833 73.269 146.833 73.269C143.798 77.0945 140.065 80.3407 135.825 82.8236C133.214 84.3502 130.427 85.5824 127.494 86.4928C123.797 87.6239 119.87 88.2401 115.806 88.2401C101.037 88.2401 88.1623 80.1752 81.3481 68.2019C81.3481 68.2019 81.342 68.1958 81.3297 68.1836C80.7596 67.1904 80.2354 66.1696 79.7572 65.1213C79.748 65.1029 79.7388 65.0845 79.7296 65.0661C79.702 65.0109 79.6836 64.9557 79.656 64.9098C79.656 64.9006 79.6468 64.8914 79.6376 64.8822C79.1227 63.7143 78.6537 62.528 78.2398 61.3049C78.2306 61.2773 78.2123 61.2498 78.2123 61.213C76.8788 57.2495 76.1523 53.0009 76.1523 48.5868C76.1523 40.4668 78.5893 32.9168 82.7827 26.6359C89.882 15.9594 102.03 8.93359 115.806 8.93359C135.255 8.93359 151.431 22.9299 154.815 41.4139C155.238 43.7405 155.459 46.1315 155.459 48.5868Z" fill="#F19A82"/>
<path d="M111.492 48.1733C111.492 53.8749 106.885 58.4913 101.193 58.4913C95.5006 58.4913 90.875 53.8749 90.875 48.1733C90.875 46.0858 91.5003 44.1363 92.5579 42.5178C96.8892 41.9292 100.963 40.513 104.623 38.4531C108.623 39.8693 111.492 43.6857 111.492 48.1733Z" fill="white"/>
<path d="M101.193 54.7001C104.794 54.7001 107.713 51.781 107.713 48.1801C107.713 44.5793 104.794 41.6602 101.193 41.6602C97.5924 41.6602 94.6733 44.5793 94.6733 48.1801C94.6733 51.781 97.5924 54.7001 101.193 54.7001Z" fill="#491249"/>
<path d="M89.1094 42.9324C96.2455 43.5761 102.765 41.4886 108.347 36.4492" stroke="#031B0D" stroke-width="3.39333" stroke-linecap="round" stroke-linejoin="round"/>
<path d="M141.214 48.1727C141.214 53.8742 136.598 58.4906 130.915 58.4906C125.231 58.4906 120.597 53.8742 120.597 48.1727C120.597 45.1748 121.875 42.4711 123.926 40.5859C124.965 41.3952 126.041 42.1401 127.181 42.839C127.19 42.8298 127.199 42.839 127.209 42.8482C130.289 44.715 133.683 46.1127 137.287 46.922H137.297C138.575 47.2163 139.881 47.437 141.205 47.5749C141.205 47.768 141.214 47.9703 141.214 48.1543V48.1727Z" fill="white"/>
<path d="M137.416 48.1721C137.416 51.7769 134.501 54.692 130.905 54.692C127.31 54.692 124.385 51.7677 124.385 48.1721C124.385 45.965 125.489 44.0246 127.172 42.8476C127.181 42.8384 127.19 42.8476 127.199 42.8568C130.28 44.7235 133.673 46.1213 137.278 46.9306H137.287C137.37 47.3352 137.416 47.749 137.416 48.1721Z" fill="#491249"/>
<path d="M123.631 40.5859C124.753 41.2664 125.921 41.8826 127.126 42.4435C127.135 42.4343 127.144 42.4435 127.163 42.4435C130.446 43.9333 133.977 44.9173 137.655 45.2943H137.664C138.97 45.4322 140.295 45.5058 141.619 45.4782" stroke="#031B0D" stroke-width="3.39333" stroke-linecap="round" stroke-linejoin="round"/>
<path d="M147.854 71.9358C147.66 72.2025 147.467 72.46 147.256 72.7175L143.182 78.3638C136.837 86.8977 132.882 95.2569 131.88 104.517C128.036 103.552 121.783 102.08 114.757 99.1193C103.115 94.2086 89.3577 85.2149 80.9434 67.7148C81.0721 67.8712 81.2008 68.0275 81.3296 68.1838C81.3296 68.1838 81.3357 68.19 81.348 68.2022C89.9003 78.4098 102.729 85.1137 117.084 84.893C122.684 84.801 127.475 83.8631 131.65 82.3733C138.474 79.9456 143.605 76.0556 147.743 72.037C147.78 72.0094 147.817 71.9726 147.854 71.9358Z" fill="#E78772"/>
<path d="M194.331 175.509C225.743 175.509 251.208 150.044 251.208 118.631C251.208 87.2188 225.743 61.7539 194.331 61.7539C162.918 61.7539 137.453 87.2188 137.453 118.631C137.453 150.044 162.918 175.509 194.331 175.509Z" fill="#E0BEF6"/>
<path d="M214.019 123.232C220.632 123.232 225.992 117.871 225.992 111.258C225.992 104.646 220.632 99.2852 214.019 99.2852C207.406 99.2852 202.046 104.646 202.046 111.258C202.046 117.871 207.406 123.232 214.019 123.232Z" fill="white"/>
<path d="M214.019 118.824C218.199 118.824 221.587 115.436 221.587 111.256C221.587 107.076 218.199 103.688 214.019 103.688C209.839 103.688 206.451 107.076 206.451 111.256C206.451 115.436 209.839 118.824 214.019 118.824Z" fill="#491249"/>
<path d="M194.919 121.805C196.016 121.805 196.905 120.915 196.905 119.818C196.905 118.721 196.016 117.832 194.919 117.832C193.822 117.832 192.933 118.721 192.933 119.818C192.933 120.915 193.822 121.805 194.919 121.805Z" fill="#491249"/>
<path d="M185.511 113.695C183.074 109.98 178.752 107.653 173.998 107.984C170.743 108.205 167.864 109.64 165.758 111.801" stroke="#031B0D" stroke-width="3.67841" stroke-linecap="round" stroke-linejoin="round"/>
<path d="M206.046 132.29C205.66 132.943 205.099 133.513 204.382 133.899C201.706 135.38 198.469 136.17 195.039 136.17C194.754 136.17 194.469 136.17 194.174 136.143C193.705 136.124 193.245 136.088 192.786 136.042C190.459 135.803 188.215 135.196 186.22 134.267C184.013 133.228 183.056 130.598 184.086 128.391C185.116 126.183 187.755 125.227 189.963 126.257C191.296 126.882 192.868 127.25 194.505 127.305C196.62 127.388 198.625 126.974 200.097 126.156C202.239 124.979 204.924 125.751 206.102 127.885C206.892 129.31 206.81 130.975 206.037 132.28L206.046 132.29Z" fill="black"/>
<path d="M206.046 132.288C205.66 132.941 205.099 133.511 204.382 133.898C201.706 135.378 198.469 136.169 195.039 136.169C194.754 136.169 194.469 136.169 194.174 136.142C193.705 136.123 193.245 136.086 192.786 136.04C194.321 132.978 197.476 130.891 201.126 130.891C202.929 130.891 204.612 131.406 206.037 132.288H206.046Z" fill="#E97971"/>
<path d="M137.085 157.907C145.562 157.907 152.433 151.036 152.433 142.559C152.433 134.083 145.562 127.211 137.085 127.211C128.608 127.211 121.737 134.083 121.737 142.559C121.737 151.036 128.608 157.907 137.085 157.907Z" fill="#C597E4"/>
<path d="M142.75 125.917C134.427 123.094 125.93 128.419 122.675 136.401C121.415 139.5 121.452 143.666 122.141 146.103C124.854 146.93 129.241 146.323 132.404 145.624C137.664 144.466 143.016 138.865 142.741 125.917H142.75Z" fill="#C597E4"/>
<path d="M145.288 117.822C146.116 121.325 143.182 134.853 143.182 134.853C143.053 135.248 142.915 135.644 142.759 136.039C142.557 136.508 142.281 137.023 142.014 137.492C139.706 140.766 136.579 138.577 133.296 136.26C130.023 133.952 129.949 128.59 131.485 126.65L131.641 126.521C131.696 126.475 131.761 126.356 131.825 126.273C132.073 125.887 132.349 125.344 132.579 124.728C132.818 124.121 133.048 123.459 133.26 122.778L133.563 121.748C133.655 121.417 133.756 121.022 133.839 120.764L133.949 118.042C134.06 115.403 135.963 113.086 138.584 112.718C142.943 112.12 144.644 115.1 145.288 117.831V117.822Z" fill="#C597E4"/>
<path d="M156.269 152.568L156.269 152.559C156.234 149.746 153.925 147.493 151.111 147.528L137.355 147.698C134.542 147.733 132.289 150.042 132.324 152.856L132.324 152.865C132.359 155.678 134.668 157.931 137.482 157.896L151.238 157.726C154.051 157.691 156.304 155.382 156.269 152.568Z" fill="#C597E4"/>
<path d="M157.567 132.955L157.567 132.946C157.532 130.132 155.223 127.88 152.41 127.915L142.516 128.037C139.702 128.072 137.45 130.381 137.484 133.195L137.485 133.204C137.519 136.017 139.828 138.27 142.642 138.235L152.536 138.112C155.35 138.077 157.602 135.768 157.567 132.955Z" fill="#C597E4"/>
<path d="M159.096 142.935L159.096 142.926C159.061 140.113 156.752 137.86 153.939 137.895L141.24 138.053C138.426 138.087 136.174 140.396 136.209 143.21L136.209 143.219C136.244 146.033 138.553 148.285 141.366 148.25L154.065 148.093C156.878 148.058 159.131 145.749 159.096 142.935Z" fill="#C597E4"/>
</g>
</g>
<defs>
<clipPath id="clip0_30301_258973">
<rect width="328" height="184" fill="white" transform="translate(0 0.5)"/>
</clipPath>
<clipPath id="clip1_30301_258973">
<rect width="175.055" height="183.01" fill="white" transform="translate(76.1523 -7.5)"/>
</clipPath>
</defs>
</svg>
